<svg id="svg" version="1.1" width="800" height="600" xmlns="http://www.w3.org/2000/svg" xmlns:xlink="http://www.w3.org/1999/xlink" style="display: block;"><g id="svgg"><path id="path0" d="M127.029 33.360 C 127.013 33.695,128.323 36.960,129.941 40.617 C 136.954 56.467,137.677 64.696,131.399 57.189 C 124.792 49.289,117.368 43.100,111.157 40.315 C 109.843 39.726,108.858 38.865,108.495 37.988 C 108.178 37.222,107.525 36.492,107.044 36.367 C 106.392 36.196,106.841 37.360,108.808 40.944 C 113.735 49.922,117.044 60.169,117.163 66.811 L 117.226 70.372 114.358 73.732 C 108.563 80.521,104.764 89.258,103.377 98.989 C 102.044 108.343,105.477 122.470,111.539 132.571 C 115.063 138.443,114.690 138.218,118.781 136.955 C 129.596 133.615,136.375 128.552,149.082 114.318 L 150.913 112.266 152.033 113.258 C 155.141 116.011,158.520 122.966,160.474 130.633 C 162.240 137.563,163.596 149.737,162.702 150.631 C 162.538 150.795,162.330 154.264,162.240 158.339 C 161.536 190.067,143.769 224.459,115.376 249.053 L 112.003 251.976 113.485 252.742 C 124.100 258.231,145.490 258.231,157.371 252.742 C 163.811 249.766,173.431 242.157,175.993 238.012 C 176.894 236.553,178.000 237.908,178.000 240.473 C 178.000 243.297,176.636 247.266,173.569 253.364 C 172.431 255.627,171.500 257.595,171.500 257.739 C 171.500 258.329,177.550 257.925,181.750 257.053 C 200.418 253.180,214.397 239.297,217.778 221.274 C 218.226 218.890,218.740 219.040,219.834 221.875 C 221.096 225.147,221.103 233.202,219.847 236.930 C 218.709 240.306,218.744 240.330,222.845 239.010 C 238.545 233.953,249.362 221.165,253.033 203.319 C 253.535 200.882,254.044 198.789,254.165 198.668 C 254.720 198.113,260.817 207.180,263.255 212.186 C 269.855 225.736,272.911 241.372,272.410 259.013 C 272.162 267.765,272.066 267.678,276.210 262.437 C 290.616 244.219,298.001 210.177,294.218 179.436 C 286.093 113.427,244.348 69.731,179.417 59.274 C 165.187 56.982,151.073 56.064,150.620 57.400 C 150.499 57.758,149.474 56.183,148.342 53.900 C 145.764 48.699,138.582 41.214,133.552 38.485 C 130.283 36.712,128.710 35.441,127.654 33.721 C 127.327 33.187,127.046 33.024,127.029 33.360 M129.499 103.797 C 130.874 104.785,131.994 105.741,131.988 105.922 C 131.970 106.410,120.943 113.610,120.656 113.322 C 120.341 113.008,126.285 102.000,126.770 102.000 C 126.895 102.000,128.123 102.809,129.499 103.797 " stroke="none" fill="#262626" fill-rule="evenodd"></path><path id="path1" d="M128.236 34.472 C 128.675 35.321,129.952 36.464,131.135 37.065 C 138.185 40.650,145.136 47.493,148.422 54.084 C 149.565 56.375,150.500 57.985,150.500 57.662 C 150.500 57.338,150.894 56.970,151.375 56.845 C 152.090 56.658,152.061 56.605,151.217 56.558 C 150.458 56.515,149.882 55.772,149.048 53.760 C 145.717 45.722,138.784 38.693,129.600 34.043 L 127.451 32.955 128.236 34.472 M108.000 36.718 C 108.000 37.880,109.485 39.566,111.178 40.325 C 117.367 43.100,124.801 49.300,131.399 57.189 C 134.077 60.391,134.752 60.957,135.012 60.217 C 135.221 59.619,134.945 58.953,134.209 58.278 C 133.592 57.713,131.480 55.337,129.515 53.000 C 125.365 48.063,121.083 44.191,116.500 41.230 C 113.067 39.011,108.000 36.322,108.000 36.718 M113.588 72.690 C 110.115 77.049,107.958 80.986,106.179 86.213 C 104.461 91.259,104.768 91.443,106.660 86.500 C 108.504 81.683,111.012 77.556,114.616 73.414 C 116.110 71.696,117.016 70.212,116.907 69.661 C 116.773 68.986,115.912 69.772,113.588 72.690 M255.500 95.750 C 257.272 97.537,258.834 99.000,258.971 99.000 C 259.109 99.000,257.772 97.537,256.000 95.750 C 254.228 93.963,252.666 92.500,252.529 92.500 C 252.391 92.500,253.728 93.963,255.500 95.750 M162.177 157.250 C 162.176 159.725,162.261 160.801,162.365 159.640 C 162.470 158.480,162.471 156.455,162.368 155.140 C 162.265 153.826,162.179 154.775,162.177 157.250 M127.473 236.875 L 125.750 238.750 127.625 237.027 C 129.370 235.423,129.730 235.000,129.348 235.000 C 129.265 235.000,128.421 235.844,127.473 236.875 M173.219 241.125 L 171.750 242.750 173.375 241.281 C 174.890 239.913,175.230 239.500,174.844 239.500 C 174.757 239.500,174.026 240.231,173.219 241.125 M116.973 247.375 L 115.250 249.250 117.125 247.527 C 118.870 245.923,119.230 245.500,118.848 245.500 C 118.765 245.500,117.921 246.344,116.973 247.375 M272.116 249.000 C 272.116 249.963,272.219 250.356,272.345 249.875 C 272.470 249.394,272.470 248.606,272.345 248.125 C 272.219 247.644,272.116 248.037,272.116 249.000 M134.875 257.362 C 135.769 257.473,137.231 257.473,138.125 257.362 C 139.019 257.251,138.287 257.160,136.500 257.160 C 134.713 257.160,133.981 257.251,134.875 257.362 M272.116 262.500 C 272.116 263.462,272.219 263.856,272.345 263.375 C 272.470 262.894,272.470 262.106,272.345 261.625 C 272.219 261.144,272.116 261.538,272.116 262.500 " stroke="none" fill="#5b5b5b" fill-rule="evenodd"></path><path id="path2" d="M134.893 57.500 C 134.772 58.325,134.859 59.000,135.087 59.000 C 135.314 59.000,135.500 58.325,135.500 57.500 C 135.500 56.675,135.413 56.000,135.307 56.000 C 135.200 56.000,135.014 56.675,134.893 57.500 M149.702 113.625 L 148.750 114.750 149.875 113.798 C 150.981 112.861,151.019 112.861,152.125 113.798 L 153.250 114.750 152.298 113.625 C 151.774 113.006,151.190 112.500,151.000 112.500 C 150.810 112.500,150.226 113.006,149.702 113.625 M143.219 121.125 L 141.750 122.750 143.375 121.281 C 144.890 119.913,145.230 119.500,144.844 119.500 C 144.757 119.500,144.026 120.231,143.219 121.125 M139.219 125.125 L 137.750 126.750 139.375 125.281 C 140.890 123.913,141.230 123.500,140.844 123.500 C 140.757 123.500,140.026 124.231,139.219 125.125 M119.769 141.970 C 119.609 142.228,120.269 143.072,121.235 143.845 C 130.170 150.991,142.590 153.868,156.284 151.964 C 158.405 151.669,160.559 151.396,161.070 151.357 C 161.700 151.310,162.000 150.898,162.000 150.081 C 162.000 149.003,161.838 148.907,160.471 149.181 C 146.187 152.038,132.052 149.801,122.916 143.238 C 120.250 141.322,120.185 141.296,119.769 141.970 M240.231 228.625 L 237.750 231.250 240.375 228.769 C 241.819 227.404,243.000 226.223,243.000 226.144 C 243.000 225.771,242.537 226.186,240.231 228.625 M122.237 242.125 L 118.750 245.750 122.375 242.263 C 125.742 239.025,126.228 238.500,125.862 238.500 C 125.785 238.500,124.154 240.131,122.237 242.125 M205.226 245.125 L 203.250 247.250 205.375 245.274 C 207.351 243.435,207.730 243.000,207.351 243.000 C 207.270 243.000,206.314 243.956,205.226 245.125 M272.187 255.750 C 272.188 258.775,272.271 259.948,272.370 258.357 C 272.470 256.765,272.469 254.290,272.368 252.857 C 272.267 251.423,272.186 252.725,272.187 255.750 M174.125 258.345 C 174.606 258.470,175.394 258.470,175.875 258.345 C 176.356 258.219,175.963 258.116,175.000 258.116 C 174.037 258.116,173.644 258.219,174.125 258.345 " stroke="none" fill="#aaaaaa" fill-rule="evenodd"></path><path id="path3" d="M0.000 150.000 L 0.000 300.000 200.000 300.000 L 400.000 300.000 400.000 150.000 L 400.000 0.000 200.000 0.000 L 0.000 0.000 0.000 150.000 M133.750 36.120 C 139.387 39.461,145.382 45.840,148.045 51.332 L 150.250 55.879 154.500 56.197 C 170.804 57.421,177.137 58.213,187.498 60.325 C 247.941 72.644,287.071 116.475,294.798 180.518 C 297.969 206.793,292.096 238.159,280.245 258.250 C 273.260 270.092,271.691 270.068,271.920 258.125 C 272.363 234.996,266.353 213.548,256.461 202.959 C 254.450 200.806,254.048 201.164,252.747 206.268 C 248.489 222.974,238.918 234.795,225.444 239.991 C 221.287 241.594,221.014 241.602,218.590 240.190 C 218.502 240.139,218.896 238.589,219.465 236.746 C 220.845 232.279,220.920 225.129,219.604 223.504 C 218.446 222.074,218.091 222.526,216.274 227.750 C 210.057 245.621,197.986 256.127,180.060 259.266 C 174.643 260.215,173.000 260.211,173.000 259.250 C 173.000 258.833,172.556 258.500,172.000 258.500 C 170.602 258.500,170.689 258.154,173.462 252.643 C 175.738 248.119,176.984 244.825,177.724 241.375 C 178.253 238.909,175.944 239.543,173.405 242.561 C 161.243 257.016,140.885 262.240,119.357 256.431 C 116.687 255.711,114.933 254.912,113.985 253.985 C 113.211 253.228,112.289 252.513,111.936 252.395 C 111.548 252.266,112.171 251.424,113.523 250.253 C 143.289 224.479,161.965 188.573,161.996 157.060 L 162.000 152.871 158.375 153.310 C 129.474 156.815,111.752 144.413,104.438 115.565 C 100.194 98.826,103.795 84.296,115.836 69.574 L 117.208 67.897 116.376 63.074 C 115.159 56.016,113.268 50.639,109.182 42.625 C 107.185 38.706,105.697 35.500,105.877 35.500 C 109.190 35.500,121.769 44.167,127.259 50.233 C 129.454 52.658,132.088 55.566,133.112 56.696 L 134.975 58.750 134.987 56.966 C 135.006 54.368,133.836 50.823,129.953 41.709 C 125.426 31.085,125.377 31.157,133.750 36.120 M125.954 103.625 C 125.635 104.244,124.356 106.633,123.113 108.935 L 120.853 113.121 126.177 109.549 C 132.408 105.369,132.022 106.045,129.293 104.085 C 126.663 102.196,126.690 102.200,125.954 103.625 " stroke="none" fill="#ffffff" fill-rule="evenodd"></path><path id="path4" d="M146.333 117.904 C 137.721 127.906,130.004 133.430,119.621 137.026 L 114.991 138.628 117.081 140.939 C 124.451 149.089,133.392 153.201,145.162 153.854 C 151.397 154.199,162.000 153.191,162.000 152.252 C 162.000 151.223,161.611 151.187,157.391 151.822 C 143.112 153.972,130.375 151.155,121.202 143.819 C 118.399 141.577,119.847 141.033,122.859 143.196 C 132.055 149.803,146.148 152.045,160.471 149.181 C 161.730 148.929,162.000 149.036,162.000 149.787 C 162.000 150.349,162.174 150.518,162.454 150.225 C 163.626 148.998,160.955 132.304,158.436 125.119 C 156.412 119.342,152.486 113.000,150.934 113.000 C 150.725 113.000,148.655 115.207,146.333 117.904 M295.655 195.750 C 295.658 197.400,295.751 198.015,295.862 197.116 C 295.974 196.217,295.971 194.867,295.857 194.116 C 295.743 193.365,295.652 194.100,295.655 195.750 M253.910 200.389 C 253.784 201.246,253.845 201.846,254.045 201.722 C 255.238 200.985,258.558 204.841,261.787 210.717 C 262.780 212.523,263.704 214.000,263.842 214.000 C 264.584 214.000,258.351 203.857,255.571 200.541 L 254.138 198.831 253.910 200.389 M218.286 221.125 C 217.421 223.770,217.421 223.769,218.058 223.137 C 218.511 222.688,218.853 222.671,219.338 223.073 C 220.187 223.777,220.156 223.094,219.268 221.500 C 218.666 220.418,218.534 220.368,218.286 221.125 M244.329 224.219 C 238.988 231.494,228.818 238.363,221.303 239.773 C 219.608 240.091,219.492 240.206,220.177 240.891 C 223.287 244.002,240.443 232.101,245.791 223.125 C 247.594 220.098,247.064 220.495,244.329 224.219 M211.445 237.625 C 206.233 247.570,191.748 256.356,177.726 258.079 C 173.125 258.645,170.802 260.000,174.435 260.000 C 183.940 260.000,196.622 254.682,204.184 247.526 C 207.618 244.276,213.332 236.500,212.285 236.500 C 212.148 236.500,211.770 237.006,211.445 237.625 M172.750 241.912 C 158.618 256.715,138.287 261.256,117.085 254.344 C 113.910 253.309,113.617 253.284,114.044 254.082 C 114.305 254.570,115.970 255.414,117.768 255.969 C 139.228 262.598,160.951 257.363,173.405 242.561 C 174.913 240.768,175.925 240.000,176.780 240.000 C 178.138 240.000,178.309 239.555,177.375 238.457 C 176.845 237.833,176.145 238.356,172.750 241.912 M281.541 255.073 C 279.574 258.651,274.297 265.776,273.093 266.478 C 272.310 266.935,272.309 266.971,273.086 266.985 C 274.632 267.013,284.335 253.168,283.414 252.247 C 283.301 252.134,282.458 253.406,281.541 255.073 " stroke="none" fill="#ffbeaa" fill-rule="evenodd"></path></g></svg>